<?xml version="1.0" encoding="utf-8" standalone="no"?>
<!DOCTYPE svg PUBLIC "-//W3C//DTD SVG 1.1//EN"
  "http://www.w3.org/Graphics/SVG/1.1/DTD/svg11.dtd">
<svg xmlns:xlink="http://www.w3.org/1999/xlink" width="484.56pt" height="167.76pt" viewBox="0 0 484.56 167.76" xmlns="http://www.w3.org/2000/svg" version="1.1">
 <metadata>
  <rdf:RDF xmlns:dc="http://purl.org/dc/elements/1.1/" xmlns:cc="http://creativecommons.org/ns#" xmlns:rdf="http://www.w3.org/1999/02/22-rdf-syntax-ns#">
   <cc:Work>
    <dc:type rdf:resource="http://purl.org/dc/dcmitype/StillImage"/>
    <dc:date>2024-06-08T15:59:25.724457</dc:date>
    <dc:format>image/svg+xml</dc:format>
    <dc:creator>
     <cc:Agent>
      <dc:title>Matplotlib v3.8.2, https://matplotlib.org/</dc:title>
     </cc:Agent>
    </dc:creator>
   </cc:Work>
  </rdf:RDF>
 </metadata>
 <defs>
  <style type="text/css">*{stroke-linejoin: round; stroke-linecap: butt}</style>
 </defs>
 <g id="figure_1">
  <g id="patch_1">
   <path d="M 0 167.76 
L 484.56 167.76 
L 484.56 0 
L 0 0 
z
" style="fill: #ffffff"/>
  </g>
  <g id="axes_1">
   <g id="patch_2">
    <path d="M 60.57 149.3064 
L 436.104 149.3064 
L 436.104 20.1312 
L 60.57 20.1312 
z
" style="fill: #ffffff"/>
   </g>
   <g id="matplotlib.axis_1">
    <g id="xtick_1">
     <g id="line2d_1">
      <defs>
       <path id="m8544fa3edc" d="M 0 0 
L 0 3.5 
" style="stroke: #000000; stroke-width: 0.8"/>
      </defs>
      <g>
       <use xlink:href="#m8544fa3edc" x="60.57" y="149.3064" style="stroke: #000000; stroke-width: 0.8"/>
      </g>
     </g>
     <g id="text_1">
      <!-- 0 -->
      <g transform="translate(57.38875 163.904837) scale(0.1 -0.1)">
       <defs>
        <path id="DejaVuSans-30" d="M 2034 4250 
Q 1547 4250 1301 3770 
Q 1056 3291 1056 2328 
Q 1056 1369 1301 889 
Q 1547 409 2034 409 
Q 2525 409 2770 889 
Q 3016 1369 3016 2328 
Q 3016 3291 2770 3770 
Q 2525 4250 2034 4250 
z
M 2034 4750 
Q 2819 4750 3233 4129 
Q 3647 3509 3647 2328 
Q 3647 1150 3233 529 
Q 2819 -91 2034 -91 
Q 1250 -91 836 529 
Q 422 1150 422 2328 
Q 422 3509 836 4129 
Q 1250 4750 2034 4750 
z
" transform="scale(0.015625)"/>
       </defs>
       <use xlink:href="#DejaVuSans-30"/>
      </g>
     </g>
    </g>
    <g id="xtick_2">
     <g id="line2d_2">
      <g>
       <use xlink:href="#m8544fa3edc" x="210.7836" y="149.3064" style="stroke: #000000; stroke-width: 0.8"/>
      </g>
     </g>
     <g id="text_2">
      <!-- 1 -->
      <g transform="translate(207.60235 163.904837) scale(0.1 -0.1)">
       <defs>
        <path id="DejaVuSans-31" d="M 794 531 
L 1825 531 
L 1825 4091 
L 703 3866 
L 703 4441 
L 1819 4666 
L 2450 4666 
L 2450 531 
L 3481 531 
L 3481 0 
L 794 0 
L 794 531 
z
" transform="scale(0.015625)"/>
       </defs>
       <use xlink:href="#DejaVuSans-31"/>
      </g>
     </g>
    </g>
    <g id="xtick_3">
     <g id="line2d_3">
      <g>
       <use xlink:href="#m8544fa3edc" x="360.9972" y="149.3064" style="stroke: #000000; stroke-width: 0.8"/>
      </g>
     </g>
     <g id="text_3">
      <!-- 2 -->
      <g transform="translate(357.81595 163.904837) scale(0.1 -0.1)">
       <defs>
        <path id="DejaVuSans-32" d="M 1228 531 
L 3431 531 
L 3431 0 
L 469 0 
L 469 531 
Q 828 903 1448 1529 
Q 2069 2156 2228 2338 
Q 2531 2678 2651 2914 
Q 2772 3150 2772 3378 
Q 2772 3750 2511 3984 
Q 2250 4219 1831 4219 
Q 1534 4219 1204 4116 
Q 875 4013 500 3803 
L 500 4441 
Q 881 4594 1212 4672 
Q 1544 4750 1819 4750 
Q 2544 4750 2975 4387 
Q 3406 4025 3406 3419 
Q 3406 3131 3298 2873 
Q 3191 2616 2906 2266 
Q 2828 2175 2409 1742 
Q 1991 1309 1228 531 
z
" transform="scale(0.015625)"/>
       </defs>
       <use xlink:href="#DejaVuSans-32"/>
      </g>
     </g>
    </g>
    <g id="text_4">
     <!-- Время, мин -->
     <g transform="translate(218.408094 177.582963) scale(0.1 -0.1)">
      <defs>
       <path id="DejaVuSans-412" d="M 1259 2228 
L 1259 519 
L 2272 519 
Q 2781 519 3026 730 
Q 3272 941 3272 1375 
Q 3272 1813 3026 2020 
Q 2781 2228 2272 2228 
L 1259 2228 
z
M 1259 4147 
L 1259 2741 
L 2194 2741 
Q 2656 2741 2882 2914 
Q 3109 3088 3109 3444 
Q 3109 3797 2882 3972 
Q 2656 4147 2194 4147 
L 1259 4147 
z
M 628 4666 
L 2241 4666 
Q 2963 4666 3353 4366 
Q 3744 4066 3744 3513 
Q 3744 3084 3544 2831 
Q 3344 2578 2956 2516 
Q 3422 2416 3680 2098 
Q 3938 1781 3938 1306 
Q 3938 681 3513 340 
Q 3088 0 2303 0 
L 628 0 
L 628 4666 
z
" transform="scale(0.015625)"/>
       <path id="DejaVuSans-440" d="M 1159 525 
L 1159 -1331 
L 581 -1331 
L 581 3500 
L 1159 3500 
L 1159 2969 
Q 1341 3281 1617 3432 
Q 1894 3584 2278 3584 
Q 2916 3584 3314 3078 
Q 3713 2572 3713 1747 
Q 3713 922 3314 415 
Q 2916 -91 2278 -91 
Q 1894 -91 1617 61 
Q 1341 213 1159 525 
z
M 3116 1747 
Q 3116 2381 2855 2742 
Q 2594 3103 2138 3103 
Q 1681 3103 1420 2742 
Q 1159 2381 1159 1747 
Q 1159 1113 1420 752 
Q 1681 391 2138 391 
Q 2594 391 2855 752 
Q 3116 1113 3116 1747 
z
" transform="scale(0.015625)"/>
       <path id="DejaVuSans-435" d="M 3597 1894 
L 3597 1613 
L 953 1613 
Q 991 1019 1311 708 
Q 1631 397 2203 397 
Q 2534 397 2845 478 
Q 3156 559 3463 722 
L 3463 178 
Q 3153 47 2828 -22 
Q 2503 -91 2169 -91 
Q 1331 -91 842 396 
Q 353 884 353 1716 
Q 353 2575 817 3079 
Q 1281 3584 2069 3584 
Q 2775 3584 3186 3129 
Q 3597 2675 3597 1894 
z
M 3022 2063 
Q 3016 2534 2758 2815 
Q 2500 3097 2075 3097 
Q 1594 3097 1305 2825 
Q 1016 2553 972 2059 
L 3022 2063 
z
" transform="scale(0.015625)"/>
       <path id="DejaVuSans-43c" d="M 581 3500 
L 1422 3500 
L 2416 1156 
L 3413 3500 
L 4247 3500 
L 4247 0 
L 3669 0 
L 3669 2950 
L 2703 672 
L 2128 672 
L 1159 2950 
L 1159 0 
L 581 0 
L 581 3500 
z
" transform="scale(0.015625)"/>
       <path id="DejaVuSans-44f" d="M 1181 2491 
Q 1181 2231 1381 2084 
Q 1581 1938 1953 1938 
L 2728 1938 
L 2728 3041 
L 1953 3041 
Q 1581 3041 1381 2897 
Q 1181 2753 1181 2491 
z
M 363 0 
L 1431 1534 
Q 1069 1616 828 1830 
Q 588 2044 588 2491 
Q 588 2997 923 3248 
Q 1259 3500 1938 3500 
L 3306 3500 
L 3306 0 
L 2728 0 
L 2728 1478 
L 2013 1478 
L 981 0 
L 363 0 
z
" transform="scale(0.015625)"/>
       <path id="DejaVuSans-2c" d="M 750 794 
L 1409 794 
L 1409 256 
L 897 -744 
L 494 -744 
L 750 256 
L 750 794 
z
" transform="scale(0.015625)"/>
       <path id="DejaVuSans-20" transform="scale(0.015625)"/>
       <path id="DejaVuSans-438" d="M 3578 3500 
L 3578 0 
L 3006 0 
L 3006 2809 
L 1319 0 
L 581 0 
L 581 3500 
L 1153 3500 
L 1153 697 
L 2838 3500 
L 3578 3500 
z
" transform="scale(0.015625)"/>
       <path id="DejaVuSans-43d" d="M 581 3500 
L 1159 3500 
L 1159 2072 
L 3025 2072 
L 3025 3500 
L 3603 3500 
L 3603 0 
L 3025 0 
L 3025 1613 
L 1159 1613 
L 1159 0 
L 581 0 
L 581 3500 
z
" transform="scale(0.015625)"/>
      </defs>
      <use xlink:href="#DejaVuSans-412"/>
      <use xlink:href="#DejaVuSans-440" x="68.603516"/>
      <use xlink:href="#DejaVuSans-435" x="132.080078"/>
      <use xlink:href="#DejaVuSans-43c" x="193.603516"/>
      <use xlink:href="#DejaVuSans-44f" x="269.042969"/>
      <use xlink:href="#DejaVuSans-2c" x="329.199219"/>
      <use xlink:href="#DejaVuSans-20" x="360.986328"/>
      <use xlink:href="#DejaVuSans-43c" x="392.773438"/>
      <use xlink:href="#DejaVuSans-438" x="468.212891"/>
      <use xlink:href="#DejaVuSans-43d" x="533.203125"/>
     </g>
    </g>
   </g>
   <g id="matplotlib.axis_2">
    <g id="ytick_1">
     <g id="line2d_4">
      <defs>
       <path id="mb58ed10e31" d="M 0 0 
L -3.5 0 
" style="stroke: #000000; stroke-width: 0.8"/>
      </defs>
      <g>
       <use xlink:href="#mb58ed10e31" x="60.57" y="130.359433" style="stroke: #000000; stroke-width: 0.8"/>
      </g>
     </g>
     <g id="text_5">
      <!-- 10000 -->
      <g transform="translate(21.7575 134.158651) scale(0.1 -0.1)">
       <use xlink:href="#DejaVuSans-31"/>
       <use xlink:href="#DejaVuSans-30" x="63.623047"/>
       <use xlink:href="#DejaVuSans-30" x="127.246094"/>
       <use xlink:href="#DejaVuSans-30" x="190.869141"/>
       <use xlink:href="#DejaVuSans-30" x="254.492188"/>
      </g>
     </g>
    </g>
    <g id="ytick_2">
     <g id="line2d_5">
      <g>
       <use xlink:href="#mb58ed10e31" x="60.57" y="88.899985" style="stroke: #000000; stroke-width: 0.8"/>
      </g>
     </g>
     <g id="text_6">
      <!-- 20000 -->
      <g transform="translate(21.7575 92.699204) scale(0.1 -0.1)">
       <use xlink:href="#DejaVuSans-32"/>
       <use xlink:href="#DejaVuSans-30" x="63.623047"/>
       <use xlink:href="#DejaVuSans-30" x="127.246094"/>
       <use xlink:href="#DejaVuSans-30" x="190.869141"/>
       <use xlink:href="#DejaVuSans-30" x="254.492188"/>
      </g>
     </g>
    </g>
    <g id="ytick_3">
     <g id="line2d_6">
      <g>
       <use xlink:href="#mb58ed10e31" x="60.57" y="47.440538" style="stroke: #000000; stroke-width: 0.8"/>
      </g>
     </g>
     <g id="text_7">
      <!-- 30000 -->
      <g transform="translate(21.7575 51.239757) scale(0.1 -0.1)">
       <defs>
        <path id="DejaVuSans-33" d="M 2597 2516 
Q 3050 2419 3304 2112 
Q 3559 1806 3559 1356 
Q 3559 666 3084 287 
Q 2609 -91 1734 -91 
Q 1441 -91 1130 -33 
Q 819 25 488 141 
L 488 750 
Q 750 597 1062 519 
Q 1375 441 1716 441 
Q 2309 441 2620 675 
Q 2931 909 2931 1356 
Q 2931 1769 2642 2001 
Q 2353 2234 1838 2234 
L 1294 2234 
L 1294 2753 
L 1863 2753 
Q 2328 2753 2575 2939 
Q 2822 3125 2822 3475 
Q 2822 3834 2567 4026 
Q 2313 4219 1838 4219 
Q 1578 4219 1281 4162 
Q 984 4106 628 3988 
L 628 4550 
Q 988 4650 1302 4700 
Q 1616 4750 1894 4750 
Q 2613 4750 3031 4423 
Q 3450 4097 3450 3541 
Q 3450 3153 3228 2886 
Q 3006 2619 2597 2516 
z
" transform="scale(0.015625)"/>
       </defs>
       <use xlink:href="#DejaVuSans-33"/>
       <use xlink:href="#DejaVuSans-30" x="63.623047"/>
       <use xlink:href="#DejaVuSans-30" x="127.246094"/>
       <use xlink:href="#DejaVuSans-30" x="190.869141"/>
       <use xlink:href="#DejaVuSans-30" x="254.492188"/>
      </g>
     </g>
    </g>
    <g id="text_8">
     <!-- Количество областей, пиксель -->
     <g transform="translate(15.677813 166.136769) rotate(-90) scale(0.1 -0.1)">
      <defs>
       <path id="DejaVuSans-41a" d="M 628 4666 
L 1259 4666 
L 1259 2359 
L 3516 4666 
L 4325 4666 
L 2522 2822 
L 4419 0 
L 3731 0 
L 2113 2403 
L 1259 1531 
L 1259 0 
L 628 0 
L 628 4666 
z
" transform="scale(0.015625)"/>
       <path id="DejaVuSans-43e" d="M 1959 3097 
Q 1497 3097 1228 2736 
Q 959 2375 959 1747 
Q 959 1119 1226 758 
Q 1494 397 1959 397 
Q 2419 397 2687 759 
Q 2956 1122 2956 1747 
Q 2956 2369 2687 2733 
Q 2419 3097 1959 3097 
z
M 1959 3584 
Q 2709 3584 3137 3096 
Q 3566 2609 3566 1747 
Q 3566 888 3137 398 
Q 2709 -91 1959 -91 
Q 1206 -91 779 398 
Q 353 888 353 1747 
Q 353 2609 779 3096 
Q 1206 3584 1959 3584 
z
" transform="scale(0.015625)"/>
       <path id="DejaVuSans-43b" d="M 238 0 
L 238 478 
Q 806 566 981 959 
Q 1194 1513 1194 2928 
L 1194 3500 
L 3559 3500 
L 3559 0 
L 2984 0 
L 2984 3041 
L 1769 3041 
L 1769 2694 
Q 1769 1344 1494 738 
Q 1200 91 238 0 
z
" transform="scale(0.015625)"/>
       <path id="DejaVuSans-447" d="M 2625 0 
L 2625 1472 
L 1553 1472 
Q 1075 1472 756 1769 
Q 469 2038 469 2613 
L 469 3500 
L 1044 3500 
L 1044 2666 
Q 1044 2300 1206 2116 
Q 1372 1931 1697 1931 
L 2625 1931 
L 2625 3500 
L 3200 3500 
L 3200 0 
L 2625 0 
z
" transform="scale(0.015625)"/>
       <path id="DejaVuSans-441" d="M 3122 3366 
L 3122 2828 
Q 2878 2963 2633 3030 
Q 2388 3097 2138 3097 
Q 1578 3097 1268 2742 
Q 959 2388 959 1747 
Q 959 1106 1268 751 
Q 1578 397 2138 397 
Q 2388 397 2633 464 
Q 2878 531 3122 666 
L 3122 134 
Q 2881 22 2623 -34 
Q 2366 -91 2075 -91 
Q 1284 -91 818 406 
Q 353 903 353 1747 
Q 353 2603 823 3093 
Q 1294 3584 2113 3584 
Q 2378 3584 2631 3529 
Q 2884 3475 3122 3366 
z
" transform="scale(0.015625)"/>
       <path id="DejaVuSans-442" d="M 188 3500 
L 3541 3500 
L 3541 3041 
L 2147 3041 
L 2147 0 
L 1581 0 
L 1581 3041 
L 188 3041 
L 188 3500 
z
" transform="scale(0.015625)"/>
       <path id="DejaVuSans-432" d="M 1156 1613 
L 1156 459 
L 1975 459 
Q 2369 459 2575 607 
Q 2781 756 2781 1038 
Q 2781 1319 2575 1466 
Q 2369 1613 1975 1613 
L 1156 1613 
z
M 1156 3041 
L 1156 2072 
L 1913 2072 
Q 2238 2072 2444 2201 
Q 2650 2331 2650 2563 
Q 2650 2794 2444 2917 
Q 2238 3041 1913 3041 
L 1156 3041 
z
M 581 3500 
L 1950 3500 
Q 2566 3500 2897 3275 
Q 3228 3050 3228 2634 
Q 3228 2313 3059 2123 
Q 2891 1934 2559 1888 
Q 2956 1813 3175 1575 
Q 3394 1338 3394 981 
Q 3394 513 3033 256 
Q 2672 0 2003 0 
L 581 0 
L 581 3500 
z
" transform="scale(0.015625)"/>
       <path id="DejaVuSans-431" d="M 1991 3584 
Q 2741 3584 3169 3096 
Q 3597 2609 3597 1747 
Q 3597 888 3169 398 
Q 2741 -91 1991 -91 
Q 1238 -91 822 384 
Q 406 859 384 1747 
L 366 2463 
Q 350 2834 350 2963 
Q 350 3463 531 3831 
Q 816 4409 1308 4659 
Q 1800 4909 2625 4916 
Q 3006 4919 3175 4972 
L 3334 4516 
Q 3181 4453 3041 4450 
L 2259 4397 
Q 1866 4369 1628 4231 
Q 1006 3866 947 3388 
L 925 3213 
Q 1331 3584 1991 3584 
z
M 1991 3097 
Q 1528 3097 1259 2736 
Q 991 2375 991 1747 
Q 991 1119 1258 758 
Q 1525 397 1991 397 
Q 2450 397 2719 759 
Q 2988 1122 2988 1747 
Q 2988 2369 2719 2733 
Q 2450 3097 1991 3097 
z
" transform="scale(0.015625)"/>
       <path id="DejaVuSans-430" d="M 2194 1759 
Q 1497 1759 1228 1600 
Q 959 1441 959 1056 
Q 959 750 1161 570 
Q 1363 391 1709 391 
Q 2188 391 2477 730 
Q 2766 1069 2766 1631 
L 2766 1759 
L 2194 1759 
z
M 3341 1997 
L 3341 0 
L 2766 0 
L 2766 531 
Q 2569 213 2275 61 
Q 1981 -91 1556 -91 
Q 1019 -91 701 211 
Q 384 513 384 1019 
Q 384 1609 779 1909 
Q 1175 2209 1959 2209 
L 2766 2209 
L 2766 2266 
Q 2766 2663 2505 2880 
Q 2244 3097 1772 3097 
Q 1472 3097 1187 3025 
Q 903 2953 641 2809 
L 641 3341 
Q 956 3463 1253 3523 
Q 1550 3584 1831 3584 
Q 2591 3584 2966 3190 
Q 3341 2797 3341 1997 
z
" transform="scale(0.015625)"/>
       <path id="DejaVuSans-439" d="M 3578 3500 
L 3578 0 
L 3006 0 
L 3006 2809 
L 1319 0 
L 581 0 
L 581 3500 
L 1153 3500 
L 1153 697 
L 2838 3500 
L 3578 3500 
z
M 1102 4833 
L 1471 4833 
Q 1505 4599 1656 4481 
Q 1808 4364 2080 4364 
Q 2349 4364 2499 4480 
Q 2649 4596 2689 4833 
L 3058 4833 
Q 3027 4386 2780 4161 
Q 2533 3936 2080 3936 
Q 1627 3936 1380 4161 
Q 1133 4386 1102 4833 
z
" transform="scale(0.015625)"/>
       <path id="DejaVuSans-43f" d="M 3603 3500 
L 3603 0 
L 3025 0 
L 3025 3041 
L 1159 3041 
L 1159 0 
L 581 0 
L 581 3500 
L 3603 3500 
z
" transform="scale(0.015625)"/>
       <path id="DejaVuSans-43a" d="M 581 3500 
L 1153 3500 
L 1153 1856 
L 2775 3500 
L 3481 3500 
L 2144 2147 
L 3653 0 
L 3009 0 
L 1769 1766 
L 1153 1141 
L 1153 0 
L 581 0 
L 581 3500 
z
" transform="scale(0.015625)"/>
       <path id="DejaVuSans-44c" d="M 2781 1038 
Q 2781 1319 2576 1466 
Q 2372 1613 1978 1613 
L 1159 1613 
L 1159 459 
L 1978 459 
Q 2372 459 2576 607 
Q 2781 756 2781 1038 
z
M 581 3500 
L 1159 3500 
L 1159 2072 
L 2003 2072 
Q 2672 2072 3033 1817 
Q 3394 1563 3394 1038 
Q 3394 513 3033 256 
Q 2672 0 2003 0 
L 581 0 
L 581 3500 
z
" transform="scale(0.015625)"/>
      </defs>
      <use xlink:href="#DejaVuSans-41a"/>
      <use xlink:href="#DejaVuSans-43e" x="70.996094"/>
      <use xlink:href="#DejaVuSans-43b" x="132.177734"/>
      <use xlink:href="#DejaVuSans-438" x="196.09375"/>
      <use xlink:href="#DejaVuSans-447" x="261.083984"/>
      <use xlink:href="#DejaVuSans-435" x="320.166016"/>
      <use xlink:href="#DejaVuSans-441" x="381.689453"/>
      <use xlink:href="#DejaVuSans-442" x="436.669922"/>
      <use xlink:href="#DejaVuSans-432" x="494.921875"/>
      <use xlink:href="#DejaVuSans-43e" x="553.857422"/>
      <use xlink:href="#DejaVuSans-20" x="615.039062"/>
      <use xlink:href="#DejaVuSans-43e" x="646.826172"/>
      <use xlink:href="#DejaVuSans-431" x="708.007812"/>
      <use xlink:href="#DejaVuSans-43b" x="769.677734"/>
      <use xlink:href="#DejaVuSans-430" x="833.59375"/>
      <use xlink:href="#DejaVuSans-441" x="894.873047"/>
      <use xlink:href="#DejaVuSans-442" x="949.853516"/>
      <use xlink:href="#DejaVuSans-435" x="1008.105469"/>
      <use xlink:href="#DejaVuSans-439" x="1069.628906"/>
      <use xlink:href="#DejaVuSans-2c" x="1134.619141"/>
      <use xlink:href="#DejaVuSans-20" x="1166.40625"/>
      <use xlink:href="#DejaVuSans-43f" x="1198.193359"/>
      <use xlink:href="#DejaVuSans-438" x="1263.574219"/>
      <use xlink:href="#DejaVuSans-43a" x="1328.564453"/>
      <use xlink:href="#DejaVuSans-441" x="1388.964844"/>
      <use xlink:href="#DejaVuSans-435" x="1443.945312"/>
      <use xlink:href="#DejaVuSans-43b" x="1505.46875"/>
      <use xlink:href="#DejaVuSans-44c" x="1569.384766"/>
     </g>
    </g>
   </g>
   <g id="line2d_7">
    <path d="M 60.57 38.327751 
L 61.82178 37.792925 
L 64.32534 35.86506 
L 65.57712 34.890763 
L 68.08068 33.31945 
L 70.58424 30.549959 
L 71.83602 28.999376 
L 73.0878 28.302857 
L 74.33958 28.195063 
L 76.84314 28.812808 
L 78.09492 29.194235 
L 79.3467 29.165214 
L 80.59848 28.792079 
L 81.85026 28.124581 
L 84.35382 26.532539 
L 89.36094 22.009313 
L 90.61272 21.234021 
L 91.8645 20.599692 
L 93.11628 20.143638 
L 95.61984 20.1312 
L 96.87162 20.632859 
L 98.1234 21.354254 
L 99.37518 22.316113 
L 100.62696 23.46454 
L 101.87874 25.098042 
L 103.13052 27.121263 
L 104.3823 29.91563 
L 105.63408 33.248969 
L 108.13764 41.739864 
L 109.38942 46.010187 
L 110.6412 49.343527 
L 111.89298 51.246515 
L 113.14476 52.025953 
L 114.39654 51.632088 
L 115.64832 50.085651 
L 119.40366 43.456285 
L 121.90722 40.102216 
L 123.159 39.144503 
L 124.41078 38.970373 
L 126.91434 38.879162 
L 130.66968 40.525102 
L 133.17324 41.797907 
L 134.42502 41.951307 
L 135.6768 41.375021 
L 136.92858 39.936378 
L 138.18036 38.754784 
L 139.43214 37.888281 
L 140.68392 37.734881 
L 141.9357 37.809508 
L 143.18748 37.660254 
L 144.43926 37.884135 
L 145.69104 38.568216 
L 146.94282 39.650308 
L 149.44638 42.527593 
L 150.69816 45.027598 
L 151.94994 47.987803 
L 154.4535 55.189309 
L 156.95706 63.07075 
L 161.96418 78.390015 
L 164.46774 86.565818 
L 165.71952 90.67445 
L 166.9713 94.020227 
L 168.22308 96.81874 
L 169.47486 98.593204 
L 170.72664 99.911614 
L 171.97842 100.284749 
L 173.2302 99.426539 
L 174.48198 98.070815 
L 175.73376 95.085735 
L 176.98554 91.213422 
L 180.74088 74.762314 
L 181.99266 69.973748 
L 183.24444 66.113873 
L 184.49622 64.024317 
L 185.748 63.605576 
L 186.99978 64.69596 
L 188.25156 66.789662 
L 189.50334 69.882537 
L 190.75512 74.098963 
L 193.25868 83.618052 
L 195.76224 91.151233 
L 197.01402 94.36434 
L 198.2658 96.458043 
L 199.51758 96.661194 
L 200.76936 94.683578 
L 202.02114 91.540952 
L 204.5247 81.035128 
L 207.02826 72.801282 
L 208.28004 69.849369 
L 210.7836 65.765614 
L 213.28716 62.258144 
L 214.53894 60.860961 
L 215.79072 59.919832 
L 217.0425 59.571572 
L 218.29428 59.824475 
L 219.54606 60.446367 
L 220.79784 61.598939 
L 223.3014 64.331117 
L 224.55318 66.656992 
L 227.05674 74.15286 
L 228.30852 79.082388 
L 229.5603 85.599813 
L 230.81208 93.402481 
L 235.8192 127.975514 
L 237.07098 133.058443 
L 238.32276 136.238382 
L 239.57454 138.257457 
L 240.82632 139.360279 
L 242.0781 139.936565 
L 243.32988 139.832916 
L 244.58166 138.891787 
L 245.83344 136.69029 
L 247.08522 132.598243 
L 248.337 126.939028 
L 250.84056 113.962221 
L 253.34412 103.319581 
L 254.5959 99.505312 
L 255.84768 97.274794 
L 257.09946 96.474626 
L 258.35124 97.395026 
L 259.60302 99.01609 
L 263.35836 105.885921 
L 268.36548 115.139669 
L 269.61726 117.038512 
L 274.62438 123.721775 
L 278.37972 130.583314 
L 280.88328 135.458945 
L 282.13506 137.316328 
L 283.38684 138.916663 
L 284.63862 139.953149 
L 285.8904 140.819651 
L 287.14218 141.433251 
L 288.39396 141.785656 
L 289.64574 141.82297 
L 290.89752 141.541046 
L 292.1493 141.039386 
L 293.40108 140.3097 
L 294.65286 139.2359 
L 297.15642 137.560939 
L 299.65998 134.998745 
L 300.91176 133.672042 
L 302.16354 131.391773 
L 303.41532 128.833725 
L 305.91888 124.331229 
L 307.17066 121.914143 
L 309.67422 118.282296 
L 310.926 117.096555 
L 312.17778 115.645475 
L 313.42956 114.439005 
L 314.68134 112.486265 
L 315.93312 110.317936 
L 317.1849 107.90085 
L 318.43668 105.143797 
L 319.68846 101.748268 
L 320.94024 98.759042 
L 322.19202 96.279767 
L 323.4438 93.166162 
L 324.69558 89.646255 
L 328.45092 77.274756 
L 332.20626 64.053338 
L 333.45804 60.794626 
L 334.70982 58.70507 
L 335.9616 57.36593 
L 337.21338 56.7316 
L 339.71694 57.490308 
L 342.2205 59.177707 
L 344.72406 61.652836 
L 345.97584 62.407398 
L 350.98296 64.397452 
L 352.23474 65.413208 
L 353.48652 67.005251 
L 354.7383 69.314542 
L 357.24186 78.340264 
L 358.49364 84.414073 
L 362.24898 108.124731 
L 364.75254 120.375998 
L 366.00432 123.924926 
L 367.2561 126.080818 
L 368.50788 127.565066 
L 369.75966 128.46059 
L 371.01144 128.833725 
L 372.26322 128.783974 
L 373.515 128.058433 
L 374.76678 127.12145 
L 376.01856 125.898396 
L 378.52212 122.220943 
L 379.7739 120.6289 
L 381.02568 119.733376 
L 382.27746 119.306344 
L 383.52924 118.398382 
L 384.78102 118.502031 
L 386.0328 119.343657 
L 387.28458 119.90336 
L 388.53636 120.703527 
L 389.78814 122.117294 
L 391.03992 124.177829 
L 393.54348 129.729249 
L 398.5506 142.664597 
L 399.80238 145.22679 
L 401.05416 146.752498 
L 402.30594 147.94653 
L 403.55772 148.908389 
L 404.8095 149.3064 
L 406.06128 149.157146 
L 407.31306 148.568422 
L 409.81662 146.777374 
L 412.32018 144.169574 
L 414.82374 140.931592 
L 416.07552 139.56343 
L 417.3273 138.680344 
L 418.57908 138.53109 
L 419.83086 138.982998 
L 426.08976 144.899261 
L 427.34154 145.127288 
L 428.59332 144.80805 
L 429.8451 144.186158 
L 431.09688 143.228445 
L 432.34866 142.063435 
L 434.85222 138.871057 
L 434.85222 138.871057 
" clip-path="url(#p2564ff9b91)" style="fill: none; stroke: #008000; stroke-width: 2; stroke-linecap: square"/>
   </g>
   <g id="patch_3">
    <path d="M 60.57 149.3064 
L 60.57 20.1312 
" style="fill: none; stroke: #000000; stroke-width: 0.8; stroke-linejoin: miter; stroke-linecap: square"/>
   </g>
   <g id="patch_4">
    <path d="M 436.104 149.3064 
L 436.104 20.1312 
" style="fill: none; stroke: #000000; stroke-width: 0.8; stroke-linejoin: miter; stroke-linecap: square"/>
   </g>
   <g id="patch_5">
    <path d="M 60.57 149.3064 
L 436.104 149.3064 
" style="fill: none; stroke: #000000; stroke-width: 0.8; stroke-linejoin: miter; stroke-linecap: square"/>
   </g>
   <g id="patch_6">
    <path d="M 60.57 20.1312 
L 436.104 20.1312 
" style="fill: none; stroke: #000000; stroke-width: 0.8; stroke-linejoin: miter; stroke-linecap: square"/>
   </g>
   <g id="text_9">
    <!-- Количество областей с течением времени в кадре -->
    <g transform="translate(87.397313 14.1312) scale(0.12 -0.12)">
     <defs>
      <path id="DejaVuSans-434" d="M 1384 459 
L 3053 459 
L 3053 3041 
L 1844 3041 
L 1844 2603 
Q 1844 1316 1475 628 
L 1384 459 
z
M 550 459 
Q 834 584 959 850 
Q 1266 1509 1266 2838 
L 1266 3500 
L 3631 3500 
L 3631 459 
L 4091 459 
L 4091 -884 
L 3631 -884 
L 3631 0 
L 794 0 
L 794 -884 
L 334 -884 
L 334 459 
L 550 459 
z
" transform="scale(0.015625)"/>
     </defs>
     <use xlink:href="#DejaVuSans-41a"/>
     <use xlink:href="#DejaVuSans-43e" x="70.996094"/>
     <use xlink:href="#DejaVuSans-43b" x="132.177734"/>
     <use xlink:href="#DejaVuSans-438" x="196.09375"/>
     <use xlink:href="#DejaVuSans-447" x="261.083984"/>
     <use xlink:href="#DejaVuSans-435" x="320.166016"/>
     <use xlink:href="#DejaVuSans-441" x="381.689453"/>
     <use xlink:href="#DejaVuSans-442" x="436.669922"/>
     <use xlink:href="#DejaVuSans-432" x="494.921875"/>
     <use xlink:href="#DejaVuSans-43e" x="553.857422"/>
     <use xlink:href="#DejaVuSans-20" x="615.039062"/>
     <use xlink:href="#DejaVuSans-43e" x="646.826172"/>
     <use xlink:href="#DejaVuSans-431" x="708.007812"/>
     <use xlink:href="#DejaVuSans-43b" x="769.677734"/>
     <use xlink:href="#DejaVuSans-430" x="833.59375"/>
     <use xlink:href="#DejaVuSans-441" x="894.873047"/>
     <use xlink:href="#DejaVuSans-442" x="949.853516"/>
     <use xlink:href="#DejaVuSans-435" x="1008.105469"/>
     <use xlink:href="#DejaVuSans-439" x="1069.628906"/>
     <use xlink:href="#DejaVuSans-20" x="1134.619141"/>
     <use xlink:href="#DejaVuSans-441" x="1166.40625"/>
     <use xlink:href="#DejaVuSans-20" x="1221.386719"/>
     <use xlink:href="#DejaVuSans-442" x="1253.173828"/>
     <use xlink:href="#DejaVuSans-435" x="1311.425781"/>
     <use xlink:href="#DejaVuSans-447" x="1372.949219"/>
     <use xlink:href="#DejaVuSans-435" x="1432.03125"/>
     <use xlink:href="#DejaVuSans-43d" x="1493.554688"/>
     <use xlink:href="#DejaVuSans-438" x="1558.935547"/>
     <use xlink:href="#DejaVuSans-435" x="1623.925781"/>
     <use xlink:href="#DejaVuSans-43c" x="1685.449219"/>
     <use xlink:href="#DejaVuSans-20" x="1760.888672"/>
     <use xlink:href="#DejaVuSans-432" x="1792.675781"/>
     <use xlink:href="#DejaVuSans-440" x="1851.611328"/>
     <use xlink:href="#DejaVuSans-435" x="1915.087891"/>
     <use xlink:href="#DejaVuSans-43c" x="1976.611328"/>
     <use xlink:href="#DejaVuSans-435" x="2052.050781"/>
     <use xlink:href="#DejaVuSans-43d" x="2113.574219"/>
     <use xlink:href="#DejaVuSans-438" x="2178.955078"/>
     <use xlink:href="#DejaVuSans-20" x="2243.945312"/>
     <use xlink:href="#DejaVuSans-432" x="2275.732422"/>
     <use xlink:href="#DejaVuSans-20" x="2334.667969"/>
     <use xlink:href="#DejaVuSans-43a" x="2366.455078"/>
     <use xlink:href="#DejaVuSans-430" x="2426.855469"/>
     <use xlink:href="#DejaVuSans-434" x="2488.134766"/>
     <use xlink:href="#DejaVuSans-440" x="2557.275391"/>
     <use xlink:href="#DejaVuSans-435" x="2620.751953"/>
    </g>
   </g>
   <g id="legend_1">
    <g id="patch_7">
     <path d="M 186.413375 42.979638 
L 429.104 42.979638 
Q 431.104 42.979638 431.104 40.979638 
L 431.104 27.1312 
Q 431.104 25.1312 429.104 25.1312 
L 186.413375 25.1312 
Q 184.413375 25.1312 184.413375 27.1312 
L 184.413375 40.979638 
Q 184.413375 42.979638 186.413375 42.979638 
z
" style="fill: #ffffff; opacity: 0.8; stroke: #cccccc; stroke-linejoin: miter"/>
    </g>
    <g id="line2d_8">
     <path d="M 188.413375 33.39995 
L 198.413375 33.39995 
L 208.413375 33.39995 
" style="fill: none; stroke: #008000; stroke-width: 2; stroke-linecap: square"/>
    </g>
    <g id="text_10">
     <!-- Кол-во областей в определённое время -->
     <g transform="translate(216.413375 36.89995) scale(0.1 -0.1)">
      <defs>
       <path id="DejaVuSans-2d" d="M 313 2009 
L 1997 2009 
L 1997 1497 
L 313 1497 
L 313 2009 
z
" transform="scale(0.015625)"/>
       <path id="DejaVuSans-451" d="M 3597 1894 
L 3597 1613 
L 953 1613 
Q 991 1019 1311 708 
Q 1631 397 2203 397 
Q 2534 397 2845 478 
Q 3156 559 3463 722 
L 3463 178 
Q 3153 47 2828 -22 
Q 2503 -91 2169 -91 
Q 1331 -91 842 396 
Q 353 884 353 1716 
Q 353 2575 817 3079 
Q 1281 3584 2069 3584 
Q 2775 3584 3186 3129 
Q 3597 2675 3597 1894 
z
M 3022 2063 
Q 3016 2534 2758 2815 
Q 2500 3097 2075 3097 
Q 1594 3097 1305 2825 
Q 1016 2553 972 2059 
L 3022 2063 
z
M 2366 4850 
L 3000 4850 
L 3000 4219 
L 2366 4219 
L 2366 4850 
z
M 1144 4850 
L 1778 4850 
L 1778 4219 
L 1144 4219 
L 1144 4850 
z
" transform="scale(0.015625)"/>
      </defs>
      <use xlink:href="#DejaVuSans-41a"/>
      <use xlink:href="#DejaVuSans-43e" x="70.996094"/>
      <use xlink:href="#DejaVuSans-43b" x="132.177734"/>
      <use xlink:href="#DejaVuSans-2d" x="196.09375"/>
      <use xlink:href="#DejaVuSans-432" x="232.177734"/>
      <use xlink:href="#DejaVuSans-43e" x="291.113281"/>
      <use xlink:href="#DejaVuSans-20" x="352.294922"/>
      <use xlink:href="#DejaVuSans-43e" x="384.082031"/>
      <use xlink:href="#DejaVuSans-431" x="445.263672"/>
      <use xlink:href="#DejaVuSans-43b" x="506.933594"/>
      <use xlink:href="#DejaVuSans-430" x="570.849609"/>
      <use xlink:href="#DejaVuSans-441" x="632.128906"/>
      <use xlink:href="#DejaVuSans-442" x="687.109375"/>
      <use xlink:href="#DejaVuSans-435" x="745.361328"/>
      <use xlink:href="#DejaVuSans-439" x="806.884766"/>
      <use xlink:href="#DejaVuSans-20" x="871.875"/>
      <use xlink:href="#DejaVuSans-432" x="903.662109"/>
      <use xlink:href="#DejaVuSans-20" x="962.597656"/>
      <use xlink:href="#DejaVuSans-43e" x="994.384766"/>
      <use xlink:href="#DejaVuSans-43f" x="1055.566406"/>
      <use xlink:href="#DejaVuSans-440" x="1120.947266"/>
      <use xlink:href="#DejaVuSans-435" x="1184.423828"/>
      <use xlink:href="#DejaVuSans-434" x="1245.947266"/>
      <use xlink:href="#DejaVuSans-435" x="1315.087891"/>
      <use xlink:href="#DejaVuSans-43b" x="1376.611328"/>
      <use xlink:href="#DejaVuSans-451" x="1440.527344"/>
      <use xlink:href="#DejaVuSans-43d" x="1502.050781"/>
      <use xlink:href="#DejaVuSans-43d" x="1567.431641"/>
      <use xlink:href="#DejaVuSans-43e" x="1632.8125"/>
      <use xlink:href="#DejaVuSans-435" x="1693.994141"/>
      <use xlink:href="#DejaVuSans-20" x="1755.517578"/>
      <use xlink:href="#DejaVuSans-432" x="1787.304688"/>
      <use xlink:href="#DejaVuSans-440" x="1846.240234"/>
      <use xlink:href="#DejaVuSans-435" x="1909.716797"/>
      <use xlink:href="#DejaVuSans-43c" x="1971.240234"/>
      <use xlink:href="#DejaVuSans-44f" x="2046.679688"/>
     </g>
    </g>
   </g>
  </g>
 </g>
 <defs>
  <clipPath id="p2564ff9b91">
   <rect x="60.57" y="20.1312" width="375.534" height="129.1752"/>
  </clipPath>
 </defs>
</svg>
