<?xml version="1.0" encoding="utf-8" standalone="no"?>
<!DOCTYPE svg PUBLIC "-//W3C//DTD SVG 1.1//EN"
  "http://www.w3.org/Graphics/SVG/1.1/DTD/svg11.dtd">
<svg xmlns:xlink="http://www.w3.org/1999/xlink" width="484.56pt" height="167.76pt" viewBox="0 0 484.56 167.76" xmlns="http://www.w3.org/2000/svg" version="1.1">
 <metadata>
  <rdf:RDF xmlns:dc="http://purl.org/dc/elements/1.1/" xmlns:cc="http://creativecommons.org/ns#" xmlns:rdf="http://www.w3.org/1999/02/22-rdf-syntax-ns#">
   <cc:Work>
    <dc:type rdf:resource="http://purl.org/dc/dcmitype/StillImage"/>
    <dc:date>2024-06-09T16:29:10.804621</dc:date>
    <dc:format>image/svg+xml</dc:format>
    <dc:creator>
     <cc:Agent>
      <dc:title>Matplotlib v3.8.2, https://matplotlib.org/</dc:title>
     </cc:Agent>
    </dc:creator>
   </cc:Work>
  </rdf:RDF>
 </metadata>
 <defs>
  <style type="text/css">*{stroke-linejoin: round; stroke-linecap: butt}</style>
 </defs>
 <g id="figure_1">
  <g id="patch_1">
   <path d="M 0 167.76 
L 484.56 167.76 
L 484.56 0 
L 0 0 
z
" style="fill: #ffffff"/>
  </g>
  <g id="axes_1">
   <g id="patch_2">
    <path d="M 60.57 149.3064 
L 436.104 149.3064 
L 436.104 20.1312 
L 60.57 20.1312 
z
" style="fill: #ffffff"/>
   </g>
   <g id="matplotlib.axis_1">
    <g id="xtick_1">
     <g id="line2d_1">
      <defs>
       <path id="mc41606bb56" d="M 0 0 
L 0 3.5 
" style="stroke: #000000; stroke-width: 0.8"/>
      </defs>
      <g>
       <use xlink:href="#mc41606bb56" x="60.57" y="149.3064" style="stroke: #000000; stroke-width: 0.8"/>
      </g>
     </g>
     <g id="text_1">
      <!-- 0 -->
      <g transform="translate(57.38875 163.904837) scale(0.1 -0.1)">
       <defs>
        <path id="DejaVuSans-30" d="M 2034 4250 
Q 1547 4250 1301 3770 
Q 1056 3291 1056 2328 
Q 1056 1369 1301 889 
Q 1547 409 2034 409 
Q 2525 409 2770 889 
Q 3016 1369 3016 2328 
Q 3016 3291 2770 3770 
Q 2525 4250 2034 4250 
z
M 2034 4750 
Q 2819 4750 3233 4129 
Q 3647 3509 3647 2328 
Q 3647 1150 3233 529 
Q 2819 -91 2034 -91 
Q 1250 -91 836 529 
Q 422 1150 422 2328 
Q 422 3509 836 4129 
Q 1250 4750 2034 4750 
z
" transform="scale(0.015625)"/>
       </defs>
       <use xlink:href="#DejaVuSans-30"/>
      </g>
     </g>
    </g>
    <g id="xtick_2">
     <g id="line2d_2">
      <g>
       <use xlink:href="#mc41606bb56" x="210.7836" y="149.3064" style="stroke: #000000; stroke-width: 0.8"/>
      </g>
     </g>
     <g id="text_2">
      <!-- 1 -->
      <g transform="translate(207.60235 163.904837) scale(0.1 -0.1)">
       <defs>
        <path id="DejaVuSans-31" d="M 794 531 
L 1825 531 
L 1825 4091 
L 703 3866 
L 703 4441 
L 1819 4666 
L 2450 4666 
L 2450 531 
L 3481 531 
L 3481 0 
L 794 0 
L 794 531 
z
" transform="scale(0.015625)"/>
       </defs>
       <use xlink:href="#DejaVuSans-31"/>
      </g>
     </g>
    </g>
    <g id="xtick_3">
     <g id="line2d_3">
      <g>
       <use xlink:href="#mc41606bb56" x="360.9972" y="149.3064" style="stroke: #000000; stroke-width: 0.8"/>
      </g>
     </g>
     <g id="text_3">
      <!-- 2 -->
      <g transform="translate(357.81595 163.904837) scale(0.1 -0.1)">
       <defs>
        <path id="DejaVuSans-32" d="M 1228 531 
L 3431 531 
L 3431 0 
L 469 0 
L 469 531 
Q 828 903 1448 1529 
Q 2069 2156 2228 2338 
Q 2531 2678 2651 2914 
Q 2772 3150 2772 3378 
Q 2772 3750 2511 3984 
Q 2250 4219 1831 4219 
Q 1534 4219 1204 4116 
Q 875 4013 500 3803 
L 500 4441 
Q 881 4594 1212 4672 
Q 1544 4750 1819 4750 
Q 2544 4750 2975 4387 
Q 3406 4025 3406 3419 
Q 3406 3131 3298 2873 
Q 3191 2616 2906 2266 
Q 2828 2175 2409 1742 
Q 1991 1309 1228 531 
z
" transform="scale(0.015625)"/>
       </defs>
       <use xlink:href="#DejaVuSans-32"/>
      </g>
     </g>
    </g>
    <g id="text_4">
     <!-- Время, мин -->
     <g transform="translate(218.408094 177.582963) scale(0.1 -0.1)">
      <defs>
       <path id="DejaVuSans-412" d="M 1259 2228 
L 1259 519 
L 2272 519 
Q 2781 519 3026 730 
Q 3272 941 3272 1375 
Q 3272 1813 3026 2020 
Q 2781 2228 2272 2228 
L 1259 2228 
z
M 1259 4147 
L 1259 2741 
L 2194 2741 
Q 2656 2741 2882 2914 
Q 3109 3088 3109 3444 
Q 3109 3797 2882 3972 
Q 2656 4147 2194 4147 
L 1259 4147 
z
M 628 4666 
L 2241 4666 
Q 2963 4666 3353 4366 
Q 3744 4066 3744 3513 
Q 3744 3084 3544 2831 
Q 3344 2578 2956 2516 
Q 3422 2416 3680 2098 
Q 3938 1781 3938 1306 
Q 3938 681 3513 340 
Q 3088 0 2303 0 
L 628 0 
L 628 4666 
z
" transform="scale(0.015625)"/>
       <path id="DejaVuSans-440" d="M 1159 525 
L 1159 -1331 
L 581 -1331 
L 581 3500 
L 1159 3500 
L 1159 2969 
Q 1341 3281 1617 3432 
Q 1894 3584 2278 3584 
Q 2916 3584 3314 3078 
Q 3713 2572 3713 1747 
Q 3713 922 3314 415 
Q 2916 -91 2278 -91 
Q 1894 -91 1617 61 
Q 1341 213 1159 525 
z
M 3116 1747 
Q 3116 2381 2855 2742 
Q 2594 3103 2138 3103 
Q 1681 3103 1420 2742 
Q 1159 2381 1159 1747 
Q 1159 1113 1420 752 
Q 1681 391 2138 391 
Q 2594 391 2855 752 
Q 3116 1113 3116 1747 
z
" transform="scale(0.015625)"/>
       <path id="DejaVuSans-435" d="M 3597 1894 
L 3597 1613 
L 953 1613 
Q 991 1019 1311 708 
Q 1631 397 2203 397 
Q 2534 397 2845 478 
Q 3156 559 3463 722 
L 3463 178 
Q 3153 47 2828 -22 
Q 2503 -91 2169 -91 
Q 1331 -91 842 396 
Q 353 884 353 1716 
Q 353 2575 817 3079 
Q 1281 3584 2069 3584 
Q 2775 3584 3186 3129 
Q 3597 2675 3597 1894 
z
M 3022 2063 
Q 3016 2534 2758 2815 
Q 2500 3097 2075 3097 
Q 1594 3097 1305 2825 
Q 1016 2553 972 2059 
L 3022 2063 
z
" transform="scale(0.015625)"/>
       <path id="DejaVuSans-43c" d="M 581 3500 
L 1422 3500 
L 2416 1156 
L 3413 3500 
L 4247 3500 
L 4247 0 
L 3669 0 
L 3669 2950 
L 2703 672 
L 2128 672 
L 1159 2950 
L 1159 0 
L 581 0 
L 581 3500 
z
" transform="scale(0.015625)"/>
       <path id="DejaVuSans-44f" d="M 1181 2491 
Q 1181 2231 1381 2084 
Q 1581 1938 1953 1938 
L 2728 1938 
L 2728 3041 
L 1953 3041 
Q 1581 3041 1381 2897 
Q 1181 2753 1181 2491 
z
M 363 0 
L 1431 1534 
Q 1069 1616 828 1830 
Q 588 2044 588 2491 
Q 588 2997 923 3248 
Q 1259 3500 1938 3500 
L 3306 3500 
L 3306 0 
L 2728 0 
L 2728 1478 
L 2013 1478 
L 981 0 
L 363 0 
z
" transform="scale(0.015625)"/>
       <path id="DejaVuSans-2c" d="M 750 794 
L 1409 794 
L 1409 256 
L 897 -744 
L 494 -744 
L 750 256 
L 750 794 
z
" transform="scale(0.015625)"/>
       <path id="DejaVuSans-20" transform="scale(0.015625)"/>
       <path id="DejaVuSans-438" d="M 3578 3500 
L 3578 0 
L 3006 0 
L 3006 2809 
L 1319 0 
L 581 0 
L 581 3500 
L 1153 3500 
L 1153 697 
L 2838 3500 
L 3578 3500 
z
" transform="scale(0.015625)"/>
       <path id="DejaVuSans-43d" d="M 581 3500 
L 1159 3500 
L 1159 2072 
L 3025 2072 
L 3025 3500 
L 3603 3500 
L 3603 0 
L 3025 0 
L 3025 1613 
L 1159 1613 
L 1159 0 
L 581 0 
L 581 3500 
z
" transform="scale(0.015625)"/>
      </defs>
      <use xlink:href="#DejaVuSans-412"/>
      <use xlink:href="#DejaVuSans-440" x="68.603516"/>
      <use xlink:href="#DejaVuSans-435" x="132.080078"/>
      <use xlink:href="#DejaVuSans-43c" x="193.603516"/>
      <use xlink:href="#DejaVuSans-44f" x="269.042969"/>
      <use xlink:href="#DejaVuSans-2c" x="329.199219"/>
      <use xlink:href="#DejaVuSans-20" x="360.986328"/>
      <use xlink:href="#DejaVuSans-43c" x="392.773438"/>
      <use xlink:href="#DejaVuSans-438" x="468.212891"/>
      <use xlink:href="#DejaVuSans-43d" x="533.203125"/>
     </g>
    </g>
   </g>
   <g id="matplotlib.axis_2">
    <g id="ytick_1">
     <g id="line2d_4">
      <defs>
       <path id="me6b97553f0" d="M 0 0 
L -3.5 0 
" style="stroke: #000000; stroke-width: 0.8"/>
      </defs>
      <g>
       <use xlink:href="#me6b97553f0" x="60.57" y="122.985051" style="stroke: #000000; stroke-width: 0.8"/>
      </g>
     </g>
     <g id="text_5">
      <!-- 20000 -->
      <g transform="translate(21.7575 126.78427) scale(0.1 -0.1)">
       <use xlink:href="#DejaVuSans-32"/>
       <use xlink:href="#DejaVuSans-30" x="63.623047"/>
       <use xlink:href="#DejaVuSans-30" x="127.246094"/>
       <use xlink:href="#DejaVuSans-30" x="190.869141"/>
       <use xlink:href="#DejaVuSans-30" x="254.492188"/>
      </g>
     </g>
    </g>
    <g id="ytick_2">
     <g id="line2d_5">
      <g>
       <use xlink:href="#me6b97553f0" x="60.57" y="91.220918" style="stroke: #000000; stroke-width: 0.8"/>
      </g>
     </g>
     <g id="text_6">
      <!-- 40000 -->
      <g transform="translate(21.7575 95.020137) scale(0.1 -0.1)">
       <defs>
        <path id="DejaVuSans-34" d="M 2419 4116 
L 825 1625 
L 2419 1625 
L 2419 4116 
z
M 2253 4666 
L 3047 4666 
L 3047 1625 
L 3713 1625 
L 3713 1100 
L 3047 1100 
L 3047 0 
L 2419 0 
L 2419 1100 
L 313 1100 
L 313 1709 
L 2253 4666 
z
" transform="scale(0.015625)"/>
       </defs>
       <use xlink:href="#DejaVuSans-34"/>
       <use xlink:href="#DejaVuSans-30" x="63.623047"/>
       <use xlink:href="#DejaVuSans-30" x="127.246094"/>
       <use xlink:href="#DejaVuSans-30" x="190.869141"/>
       <use xlink:href="#DejaVuSans-30" x="254.492188"/>
      </g>
     </g>
    </g>
    <g id="ytick_3">
     <g id="line2d_6">
      <g>
       <use xlink:href="#me6b97553f0" x="60.57" y="59.456785" style="stroke: #000000; stroke-width: 0.8"/>
      </g>
     </g>
     <g id="text_7">
      <!-- 60000 -->
      <g transform="translate(21.7575 63.256004) scale(0.1 -0.1)">
       <defs>
        <path id="DejaVuSans-36" d="M 2113 2584 
Q 1688 2584 1439 2293 
Q 1191 2003 1191 1497 
Q 1191 994 1439 701 
Q 1688 409 2113 409 
Q 2538 409 2786 701 
Q 3034 994 3034 1497 
Q 3034 2003 2786 2293 
Q 2538 2584 2113 2584 
z
M 3366 4563 
L 3366 3988 
Q 3128 4100 2886 4159 
Q 2644 4219 2406 4219 
Q 1781 4219 1451 3797 
Q 1122 3375 1075 2522 
Q 1259 2794 1537 2939 
Q 1816 3084 2150 3084 
Q 2853 3084 3261 2657 
Q 3669 2231 3669 1497 
Q 3669 778 3244 343 
Q 2819 -91 2113 -91 
Q 1303 -91 875 529 
Q 447 1150 447 2328 
Q 447 3434 972 4092 
Q 1497 4750 2381 4750 
Q 2619 4750 2861 4703 
Q 3103 4656 3366 4563 
z
" transform="scale(0.015625)"/>
       </defs>
       <use xlink:href="#DejaVuSans-36"/>
       <use xlink:href="#DejaVuSans-30" x="63.623047"/>
       <use xlink:href="#DejaVuSans-30" x="127.246094"/>
       <use xlink:href="#DejaVuSans-30" x="190.869141"/>
       <use xlink:href="#DejaVuSans-30" x="254.492188"/>
      </g>
     </g>
    </g>
    <g id="ytick_4">
     <g id="line2d_7">
      <g>
       <use xlink:href="#me6b97553f0" x="60.57" y="27.692652" style="stroke: #000000; stroke-width: 0.8"/>
      </g>
     </g>
     <g id="text_8">
      <!-- 80000 -->
      <g transform="translate(21.7575 31.491871) scale(0.1 -0.1)">
       <defs>
        <path id="DejaVuSans-38" d="M 2034 2216 
Q 1584 2216 1326 1975 
Q 1069 1734 1069 1313 
Q 1069 891 1326 650 
Q 1584 409 2034 409 
Q 2484 409 2743 651 
Q 3003 894 3003 1313 
Q 3003 1734 2745 1975 
Q 2488 2216 2034 2216 
z
M 1403 2484 
Q 997 2584 770 2862 
Q 544 3141 544 3541 
Q 544 4100 942 4425 
Q 1341 4750 2034 4750 
Q 2731 4750 3128 4425 
Q 3525 4100 3525 3541 
Q 3525 3141 3298 2862 
Q 3072 2584 2669 2484 
Q 3125 2378 3379 2068 
Q 3634 1759 3634 1313 
Q 3634 634 3220 271 
Q 2806 -91 2034 -91 
Q 1263 -91 848 271 
Q 434 634 434 1313 
Q 434 1759 690 2068 
Q 947 2378 1403 2484 
z
M 1172 3481 
Q 1172 3119 1398 2916 
Q 1625 2713 2034 2713 
Q 2441 2713 2670 2916 
Q 2900 3119 2900 3481 
Q 2900 3844 2670 4047 
Q 2441 4250 2034 4250 
Q 1625 4250 1398 4047 
Q 1172 3844 1172 3481 
z
" transform="scale(0.015625)"/>
       </defs>
       <use xlink:href="#DejaVuSans-38"/>
       <use xlink:href="#DejaVuSans-30" x="63.623047"/>
       <use xlink:href="#DejaVuSans-30" x="127.246094"/>
       <use xlink:href="#DejaVuSans-30" x="190.869141"/>
       <use xlink:href="#DejaVuSans-30" x="254.492188"/>
      </g>
     </g>
    </g>
    <g id="text_9">
     <!-- Количество областей, пиксель -->
     <g transform="translate(15.677813 166.136769) rotate(-90) scale(0.1 -0.1)">
      <defs>
       <path id="DejaVuSans-41a" d="M 628 4666 
L 1259 4666 
L 1259 2359 
L 3516 4666 
L 4325 4666 
L 2522 2822 
L 4419 0 
L 3731 0 
L 2113 2403 
L 1259 1531 
L 1259 0 
L 628 0 
L 628 4666 
z
" transform="scale(0.015625)"/>
       <path id="DejaVuSans-43e" d="M 1959 3097 
Q 1497 3097 1228 2736 
Q 959 2375 959 1747 
Q 959 1119 1226 758 
Q 1494 397 1959 397 
Q 2419 397 2687 759 
Q 2956 1122 2956 1747 
Q 2956 2369 2687 2733 
Q 2419 3097 1959 3097 
z
M 1959 3584 
Q 2709 3584 3137 3096 
Q 3566 2609 3566 1747 
Q 3566 888 3137 398 
Q 2709 -91 1959 -91 
Q 1206 -91 779 398 
Q 353 888 353 1747 
Q 353 2609 779 3096 
Q 1206 3584 1959 3584 
z
" transform="scale(0.015625)"/>
       <path id="DejaVuSans-43b" d="M 238 0 
L 238 478 
Q 806 566 981 959 
Q 1194 1513 1194 2928 
L 1194 3500 
L 3559 3500 
L 3559 0 
L 2984 0 
L 2984 3041 
L 1769 3041 
L 1769 2694 
Q 1769 1344 1494 738 
Q 1200 91 238 0 
z
" transform="scale(0.015625)"/>
       <path id="DejaVuSans-447" d="M 2625 0 
L 2625 1472 
L 1553 1472 
Q 1075 1472 756 1769 
Q 469 2038 469 2613 
L 469 3500 
L 1044 3500 
L 1044 2666 
Q 1044 2300 1206 2116 
Q 1372 1931 1697 1931 
L 2625 1931 
L 2625 3500 
L 3200 3500 
L 3200 0 
L 2625 0 
z
" transform="scale(0.015625)"/>
       <path id="DejaVuSans-441" d="M 3122 3366 
L 3122 2828 
Q 2878 2963 2633 3030 
Q 2388 3097 2138 3097 
Q 1578 3097 1268 2742 
Q 959 2388 959 1747 
Q 959 1106 1268 751 
Q 1578 397 2138 397 
Q 2388 397 2633 464 
Q 2878 531 3122 666 
L 3122 134 
Q 2881 22 2623 -34 
Q 2366 -91 2075 -91 
Q 1284 -91 818 406 
Q 353 903 353 1747 
Q 353 2603 823 3093 
Q 1294 3584 2113 3584 
Q 2378 3584 2631 3529 
Q 2884 3475 3122 3366 
z
" transform="scale(0.015625)"/>
       <path id="DejaVuSans-442" d="M 188 3500 
L 3541 3500 
L 3541 3041 
L 2147 3041 
L 2147 0 
L 1581 0 
L 1581 3041 
L 188 3041 
L 188 3500 
z
" transform="scale(0.015625)"/>
       <path id="DejaVuSans-432" d="M 1156 1613 
L 1156 459 
L 1975 459 
Q 2369 459 2575 607 
Q 2781 756 2781 1038 
Q 2781 1319 2575 1466 
Q 2369 1613 1975 1613 
L 1156 1613 
z
M 1156 3041 
L 1156 2072 
L 1913 2072 
Q 2238 2072 2444 2201 
Q 2650 2331 2650 2563 
Q 2650 2794 2444 2917 
Q 2238 3041 1913 3041 
L 1156 3041 
z
M 581 3500 
L 1950 3500 
Q 2566 3500 2897 3275 
Q 3228 3050 3228 2634 
Q 3228 2313 3059 2123 
Q 2891 1934 2559 1888 
Q 2956 1813 3175 1575 
Q 3394 1338 3394 981 
Q 3394 513 3033 256 
Q 2672 0 2003 0 
L 581 0 
L 581 3500 
z
" transform="scale(0.015625)"/>
       <path id="DejaVuSans-431" d="M 1991 3584 
Q 2741 3584 3169 3096 
Q 3597 2609 3597 1747 
Q 3597 888 3169 398 
Q 2741 -91 1991 -91 
Q 1238 -91 822 384 
Q 406 859 384 1747 
L 366 2463 
Q 350 2834 350 2963 
Q 350 3463 531 3831 
Q 816 4409 1308 4659 
Q 1800 4909 2625 4916 
Q 3006 4919 3175 4972 
L 3334 4516 
Q 3181 4453 3041 4450 
L 2259 4397 
Q 1866 4369 1628 4231 
Q 1006 3866 947 3388 
L 925 3213 
Q 1331 3584 1991 3584 
z
M 1991 3097 
Q 1528 3097 1259 2736 
Q 991 2375 991 1747 
Q 991 1119 1258 758 
Q 1525 397 1991 397 
Q 2450 397 2719 759 
Q 2988 1122 2988 1747 
Q 2988 2369 2719 2733 
Q 2450 3097 1991 3097 
z
" transform="scale(0.015625)"/>
       <path id="DejaVuSans-430" d="M 2194 1759 
Q 1497 1759 1228 1600 
Q 959 1441 959 1056 
Q 959 750 1161 570 
Q 1363 391 1709 391 
Q 2188 391 2477 730 
Q 2766 1069 2766 1631 
L 2766 1759 
L 2194 1759 
z
M 3341 1997 
L 3341 0 
L 2766 0 
L 2766 531 
Q 2569 213 2275 61 
Q 1981 -91 1556 -91 
Q 1019 -91 701 211 
Q 384 513 384 1019 
Q 384 1609 779 1909 
Q 1175 2209 1959 2209 
L 2766 2209 
L 2766 2266 
Q 2766 2663 2505 2880 
Q 2244 3097 1772 3097 
Q 1472 3097 1187 3025 
Q 903 2953 641 2809 
L 641 3341 
Q 956 3463 1253 3523 
Q 1550 3584 1831 3584 
Q 2591 3584 2966 3190 
Q 3341 2797 3341 1997 
z
" transform="scale(0.015625)"/>
       <path id="DejaVuSans-439" d="M 3578 3500 
L 3578 0 
L 3006 0 
L 3006 2809 
L 1319 0 
L 581 0 
L 581 3500 
L 1153 3500 
L 1153 697 
L 2838 3500 
L 3578 3500 
z
M 1102 4833 
L 1471 4833 
Q 1505 4599 1656 4481 
Q 1808 4364 2080 4364 
Q 2349 4364 2499 4480 
Q 2649 4596 2689 4833 
L 3058 4833 
Q 3027 4386 2780 4161 
Q 2533 3936 2080 3936 
Q 1627 3936 1380 4161 
Q 1133 4386 1102 4833 
z
" transform="scale(0.015625)"/>
       <path id="DejaVuSans-43f" d="M 3603 3500 
L 3603 0 
L 3025 0 
L 3025 3041 
L 1159 3041 
L 1159 0 
L 581 0 
L 581 3500 
L 3603 3500 
z
" transform="scale(0.015625)"/>
       <path id="DejaVuSans-43a" d="M 581 3500 
L 1153 3500 
L 1153 1856 
L 2775 3500 
L 3481 3500 
L 2144 2147 
L 3653 0 
L 3009 0 
L 1769 1766 
L 1153 1141 
L 1153 0 
L 581 0 
L 581 3500 
z
" transform="scale(0.015625)"/>
       <path id="DejaVuSans-44c" d="M 2781 1038 
Q 2781 1319 2576 1466 
Q 2372 1613 1978 1613 
L 1159 1613 
L 1159 459 
L 1978 459 
Q 2372 459 2576 607 
Q 2781 756 2781 1038 
z
M 581 3500 
L 1159 3500 
L 1159 2072 
L 2003 2072 
Q 2672 2072 3033 1817 
Q 3394 1563 3394 1038 
Q 3394 513 3033 256 
Q 2672 0 2003 0 
L 581 0 
L 581 3500 
z
" transform="scale(0.015625)"/>
      </defs>
      <use xlink:href="#DejaVuSans-41a"/>
      <use xlink:href="#DejaVuSans-43e" x="70.996094"/>
      <use xlink:href="#DejaVuSans-43b" x="132.177734"/>
      <use xlink:href="#DejaVuSans-438" x="196.09375"/>
      <use xlink:href="#DejaVuSans-447" x="261.083984"/>
      <use xlink:href="#DejaVuSans-435" x="320.166016"/>
      <use xlink:href="#DejaVuSans-441" x="381.689453"/>
      <use xlink:href="#DejaVuSans-442" x="436.669922"/>
      <use xlink:href="#DejaVuSans-432" x="494.921875"/>
      <use xlink:href="#DejaVuSans-43e" x="553.857422"/>
      <use xlink:href="#DejaVuSans-20" x="615.039062"/>
      <use xlink:href="#DejaVuSans-43e" x="646.826172"/>
      <use xlink:href="#DejaVuSans-431" x="708.007812"/>
      <use xlink:href="#DejaVuSans-43b" x="769.677734"/>
      <use xlink:href="#DejaVuSans-430" x="833.59375"/>
      <use xlink:href="#DejaVuSans-441" x="894.873047"/>
      <use xlink:href="#DejaVuSans-442" x="949.853516"/>
      <use xlink:href="#DejaVuSans-435" x="1008.105469"/>
      <use xlink:href="#DejaVuSans-439" x="1069.628906"/>
      <use xlink:href="#DejaVuSans-2c" x="1134.619141"/>
      <use xlink:href="#DejaVuSans-20" x="1166.40625"/>
      <use xlink:href="#DejaVuSans-43f" x="1198.193359"/>
      <use xlink:href="#DejaVuSans-438" x="1263.574219"/>
      <use xlink:href="#DejaVuSans-43a" x="1328.564453"/>
      <use xlink:href="#DejaVuSans-441" x="1388.964844"/>
      <use xlink:href="#DejaVuSans-435" x="1443.945312"/>
      <use xlink:href="#DejaVuSans-43b" x="1505.46875"/>
      <use xlink:href="#DejaVuSans-44c" x="1569.384766"/>
     </g>
    </g>
   </g>
   <g id="line2d_8">
    <path d="M 60.57 20.1312 
L 64.32534 20.247139 
L 68.08068 20.755365 
L 70.58424 21.517704 
L 71.83602 22.202221 
L 75.59136 24.948231 
L 78.09492 26.796903 
L 79.3467 27.702181 
L 81.85026 30.148019 
L 90.61272 40.978001 
L 95.61984 45.87603 
L 100.62696 50.386537 
L 103.13052 52.187563 
L 105.63408 53.724947 
L 108.13764 54.890691 
L 116.9001 57.957518 
L 120.65544 58.538802 
L 121.90722 58.527684 
L 125.66256 58.179867 
L 128.16612 58.084574 
L 130.66968 58.462568 
L 131.92146 58.551507 
L 134.42502 59.12485 
L 135.6768 59.593371 
L 136.92858 60.242947 
L 139.43214 61.81686 
L 143.18748 63.997468 
L 145.69104 66.189193 
L 148.1946 68.504798 
L 150.69816 70.636172 
L 151.94994 71.968677 
L 153.20172 73.034364 
L 154.4535 74.387516 
L 155.70528 75.559612 
L 163.21596 80.838811 
L 164.46774 81.513799 
L 166.9713 82.325373 
L 168.22308 82.596956 
L 173.2302 82.922538 
L 176.98554 83.030536 
L 183.24444 84.255044 
L 184.49622 84.270926 
L 188.25156 83.564174 
L 189.50334 83.476822 
L 190.75512 83.502234 
L 192.0069 83.734112 
L 194.51046 84.472628 
L 195.76224 85.039618 
L 197.01402 85.816251 
L 198.2658 86.807292 
L 199.51758 88.000035 
L 200.76936 89.410362 
L 202.02114 91.225683 
L 203.27292 93.318939 
L 204.5247 95.029438 
L 208.28004 100.616749 
L 210.7836 103.877337 
L 212.03538 105.313076 
L 214.53894 107.809737 
L 215.79072 108.923069 
L 217.0425 109.8617 
L 220.79784 112.253539 
L 223.3014 113.538398 
L 225.80496 114.494498 
L 230.81208 116.249467 
L 235.8192 117.653441 
L 240.82632 119.049475 
L 242.0781 119.268648 
L 243.32988 119.359175 
L 244.58166 119.33694 
L 247.08522 118.81442 
L 249.58878 117.758263 
L 252.09234 116.727517 
L 254.5959 115.96359 
L 255.84768 115.801592 
L 257.09946 115.83018 
L 258.35124 116.152586 
L 260.8548 117.035629 
L 263.35836 117.653441 
L 265.86192 118.17755 
L 268.36548 118.928771 
L 270.86904 119.883284 
L 272.12082 120.447097 
L 273.3726 120.826678 
L 277.12794 121.379374 
L 279.6315 121.296787 
L 282.13506 121.231671 
L 285.8904 120.354981 
L 287.14218 119.897577 
L 288.39396 119.181296 
L 289.64574 118.067963 
L 292.1493 115.237779 
L 293.40108 113.657513 
L 294.65286 111.89778 
L 295.90464 109.915699 
L 297.15642 107.588976 
L 300.91176 99.435123 
L 304.6671 93.117237 
L 305.91888 91.463914 
L 307.17066 90.301346 
L 308.42244 89.770885 
L 309.67422 89.918589 
L 310.926 90.715868 
L 312.17778 92.172254 
L 313.42956 94.349685 
L 314.68134 97.065519 
L 318.43668 106.975928 
L 320.94024 112.032778 
L 322.19202 114.057742 
L 325.94736 121.110967 
L 328.45092 124.03962 
L 330.95448 126.32505 
L 333.45804 129.32676 
L 334.70982 130.83238 
L 344.72406 140.626851 
L 347.22762 142.024472 
L 349.73118 144.301961 
L 350.98296 144.999184 
L 354.7383 145.885403 
L 357.24186 146.274513 
L 359.74542 146.477804 
L 363.50076 146.63186 
L 366.00432 146.700153 
L 369.75966 146.80021 
L 373.515 147.12738 
L 376.01856 147.411669 
L 379.7739 148.053305 
L 384.78102 148.891878 
L 387.28458 149.192049 
L 389.78814 149.3064 
L 397.29882 148.771174 
L 403.55772 148.170832 
L 404.8095 148.010423 
L 407.31306 148.015188 
L 409.81662 148.262948 
L 413.57196 148.701293 
L 414.82374 148.618707 
L 417.3273 148.099363 
L 418.57908 147.718193 
L 419.83086 147.189321 
L 424.83798 144.605308 
L 426.08976 143.679384 
L 428.59332 141.428895 
L 429.8451 141.046137 
L 432.34866 141.189076 
L 434.85222 141.957768 
L 434.85222 141.957768 
" clip-path="url(#pbb5ac7a6ad)" style="fill: none; stroke: #008000; stroke-width: 2; stroke-linecap: square"/>
   </g>
   <g id="patch_3">
    <path d="M 60.57 149.3064 
L 60.57 20.1312 
" style="fill: none; stroke: #000000; stroke-width: 0.8; stroke-linejoin: miter; stroke-linecap: square"/>
   </g>
   <g id="patch_4">
    <path d="M 436.104 149.3064 
L 436.104 20.1312 
" style="fill: none; stroke: #000000; stroke-width: 0.8; stroke-linejoin: miter; stroke-linecap: square"/>
   </g>
   <g id="patch_5">
    <path d="M 60.57 149.3064 
L 436.104 149.3064 
" style="fill: none; stroke: #000000; stroke-width: 0.8; stroke-linejoin: miter; stroke-linecap: square"/>
   </g>
   <g id="patch_6">
    <path d="M 60.57 20.1312 
L 436.104 20.1312 
" style="fill: none; stroke: #000000; stroke-width: 0.8; stroke-linejoin: miter; stroke-linecap: square"/>
   </g>
   <g id="text_10">
    <!-- Количество областей с течением времени в кадре -->
    <g transform="translate(87.397313 14.1312) scale(0.12 -0.12)">
     <defs>
      <path id="DejaVuSans-434" d="M 1384 459 
L 3053 459 
L 3053 3041 
L 1844 3041 
L 1844 2603 
Q 1844 1316 1475 628 
L 1384 459 
z
M 550 459 
Q 834 584 959 850 
Q 1266 1509 1266 2838 
L 1266 3500 
L 3631 3500 
L 3631 459 
L 4091 459 
L 4091 -884 
L 3631 -884 
L 3631 0 
L 794 0 
L 794 -884 
L 334 -884 
L 334 459 
L 550 459 
z
" transform="scale(0.015625)"/>
     </defs>
     <use xlink:href="#DejaVuSans-41a"/>
     <use xlink:href="#DejaVuSans-43e" x="70.996094"/>
     <use xlink:href="#DejaVuSans-43b" x="132.177734"/>
     <use xlink:href="#DejaVuSans-438" x="196.09375"/>
     <use xlink:href="#DejaVuSans-447" x="261.083984"/>
     <use xlink:href="#DejaVuSans-435" x="320.166016"/>
     <use xlink:href="#DejaVuSans-441" x="381.689453"/>
     <use xlink:href="#DejaVuSans-442" x="436.669922"/>
     <use xlink:href="#DejaVuSans-432" x="494.921875"/>
     <use xlink:href="#DejaVuSans-43e" x="553.857422"/>
     <use xlink:href="#DejaVuSans-20" x="615.039062"/>
     <use xlink:href="#DejaVuSans-43e" x="646.826172"/>
     <use xlink:href="#DejaVuSans-431" x="708.007812"/>
     <use xlink:href="#DejaVuSans-43b" x="769.677734"/>
     <use xlink:href="#DejaVuSans-430" x="833.59375"/>
     <use xlink:href="#DejaVuSans-441" x="894.873047"/>
     <use xlink:href="#DejaVuSans-442" x="949.853516"/>
     <use xlink:href="#DejaVuSans-435" x="1008.105469"/>
     <use xlink:href="#DejaVuSans-439" x="1069.628906"/>
     <use xlink:href="#DejaVuSans-20" x="1134.619141"/>
     <use xlink:href="#DejaVuSans-441" x="1166.40625"/>
     <use xlink:href="#DejaVuSans-20" x="1221.386719"/>
     <use xlink:href="#DejaVuSans-442" x="1253.173828"/>
     <use xlink:href="#DejaVuSans-435" x="1311.425781"/>
     <use xlink:href="#DejaVuSans-447" x="1372.949219"/>
     <use xlink:href="#DejaVuSans-435" x="1432.03125"/>
     <use xlink:href="#DejaVuSans-43d" x="1493.554688"/>
     <use xlink:href="#DejaVuSans-438" x="1558.935547"/>
     <use xlink:href="#DejaVuSans-435" x="1623.925781"/>
     <use xlink:href="#DejaVuSans-43c" x="1685.449219"/>
     <use xlink:href="#DejaVuSans-20" x="1760.888672"/>
     <use xlink:href="#DejaVuSans-432" x="1792.675781"/>
     <use xlink:href="#DejaVuSans-440" x="1851.611328"/>
     <use xlink:href="#DejaVuSans-435" x="1915.087891"/>
     <use xlink:href="#DejaVuSans-43c" x="1976.611328"/>
     <use xlink:href="#DejaVuSans-435" x="2052.050781"/>
     <use xlink:href="#DejaVuSans-43d" x="2113.574219"/>
     <use xlink:href="#DejaVuSans-438" x="2178.955078"/>
     <use xlink:href="#DejaVuSans-20" x="2243.945312"/>
     <use xlink:href="#DejaVuSans-432" x="2275.732422"/>
     <use xlink:href="#DejaVuSans-20" x="2334.667969"/>
     <use xlink:href="#DejaVuSans-43a" x="2366.455078"/>
     <use xlink:href="#DejaVuSans-430" x="2426.855469"/>
     <use xlink:href="#DejaVuSans-434" x="2488.134766"/>
     <use xlink:href="#DejaVuSans-440" x="2557.275391"/>
     <use xlink:href="#DejaVuSans-435" x="2620.751953"/>
    </g>
   </g>
   <g id="legend_1">
    <g id="patch_7">
     <path d="M 186.413375 42.979638 
L 429.104 42.979638 
Q 431.104 42.979638 431.104 40.979638 
L 431.104 27.1312 
Q 431.104 25.1312 429.104 25.1312 
L 186.413375 25.1312 
Q 184.413375 25.1312 184.413375 27.1312 
L 184.413375 40.979638 
Q 184.413375 42.979638 186.413375 42.979638 
z
" style="fill: #ffffff; opacity: 0.8; stroke: #cccccc; stroke-linejoin: miter"/>
    </g>
    <g id="line2d_9">
     <path d="M 188.413375 33.39995 
L 198.413375 33.39995 
L 208.413375 33.39995 
" style="fill: none; stroke: #008000; stroke-width: 2; stroke-linecap: square"/>
    </g>
    <g id="text_11">
     <!-- Кол-во областей в определённое время -->
     <g transform="translate(216.413375 36.89995) scale(0.1 -0.1)">
      <defs>
       <path id="DejaVuSans-2d" d="M 313 2009 
L 1997 2009 
L 1997 1497 
L 313 1497 
L 313 2009 
z
" transform="scale(0.015625)"/>
       <path id="DejaVuSans-451" d="M 3597 1894 
L 3597 1613 
L 953 1613 
Q 991 1019 1311 708 
Q 1631 397 2203 397 
Q 2534 397 2845 478 
Q 3156 559 3463 722 
L 3463 178 
Q 3153 47 2828 -22 
Q 2503 -91 2169 -91 
Q 1331 -91 842 396 
Q 353 884 353 1716 
Q 353 2575 817 3079 
Q 1281 3584 2069 3584 
Q 2775 3584 3186 3129 
Q 3597 2675 3597 1894 
z
M 3022 2063 
Q 3016 2534 2758 2815 
Q 2500 3097 2075 3097 
Q 1594 3097 1305 2825 
Q 1016 2553 972 2059 
L 3022 2063 
z
M 2366 4850 
L 3000 4850 
L 3000 4219 
L 2366 4219 
L 2366 4850 
z
M 1144 4850 
L 1778 4850 
L 1778 4219 
L 1144 4219 
L 1144 4850 
z
" transform="scale(0.015625)"/>
      </defs>
      <use xlink:href="#DejaVuSans-41a"/>
      <use xlink:href="#DejaVuSans-43e" x="70.996094"/>
      <use xlink:href="#DejaVuSans-43b" x="132.177734"/>
      <use xlink:href="#DejaVuSans-2d" x="196.09375"/>
      <use xlink:href="#DejaVuSans-432" x="232.177734"/>
      <use xlink:href="#DejaVuSans-43e" x="291.113281"/>
      <use xlink:href="#DejaVuSans-20" x="352.294922"/>
      <use xlink:href="#DejaVuSans-43e" x="384.082031"/>
      <use xlink:href="#DejaVuSans-431" x="445.263672"/>
      <use xlink:href="#DejaVuSans-43b" x="506.933594"/>
      <use xlink:href="#DejaVuSans-430" x="570.849609"/>
      <use xlink:href="#DejaVuSans-441" x="632.128906"/>
      <use xlink:href="#DejaVuSans-442" x="687.109375"/>
      <use xlink:href="#DejaVuSans-435" x="745.361328"/>
      <use xlink:href="#DejaVuSans-439" x="806.884766"/>
      <use xlink:href="#DejaVuSans-20" x="871.875"/>
      <use xlink:href="#DejaVuSans-432" x="903.662109"/>
      <use xlink:href="#DejaVuSans-20" x="962.597656"/>
      <use xlink:href="#DejaVuSans-43e" x="994.384766"/>
      <use xlink:href="#DejaVuSans-43f" x="1055.566406"/>
      <use xlink:href="#DejaVuSans-440" x="1120.947266"/>
      <use xlink:href="#DejaVuSans-435" x="1184.423828"/>
      <use xlink:href="#DejaVuSans-434" x="1245.947266"/>
      <use xlink:href="#DejaVuSans-435" x="1315.087891"/>
      <use xlink:href="#DejaVuSans-43b" x="1376.611328"/>
      <use xlink:href="#DejaVuSans-451" x="1440.527344"/>
      <use xlink:href="#DejaVuSans-43d" x="1502.050781"/>
      <use xlink:href="#DejaVuSans-43d" x="1567.431641"/>
      <use xlink:href="#DejaVuSans-43e" x="1632.8125"/>
      <use xlink:href="#DejaVuSans-435" x="1693.994141"/>
      <use xlink:href="#DejaVuSans-20" x="1755.517578"/>
      <use xlink:href="#DejaVuSans-432" x="1787.304688"/>
      <use xlink:href="#DejaVuSans-440" x="1846.240234"/>
      <use xlink:href="#DejaVuSans-435" x="1909.716797"/>
      <use xlink:href="#DejaVuSans-43c" x="1971.240234"/>
      <use xlink:href="#DejaVuSans-44f" x="2046.679688"/>
     </g>
    </g>
   </g>
  </g>
 </g>
 <defs>
  <clipPath id="pbb5ac7a6ad">
   <rect x="60.57" y="20.1312" width="375.534" height="129.1752"/>
  </clipPath>
 </defs>
</svg>
